<mxfile host="app.diagrams.net" agent="Mozilla/5.0 (Windows NT 10.0; Win64; x64) AppleWebKit/537.36 (KHTML, like Gecko) Chrome/129.0.0.0 Safari/537.36" version="24.7.17">
  <diagram name="Page-1" id="DFYBOB6cbRfLUTyR_PUz">
    <mxGraphModel dx="1050" dy="565" grid="1" gridSize="10" guides="1" tooltips="1" connect="1" arrows="1" fold="1" page="1" pageScale="1" pageWidth="850" pageHeight="1100" math="0" shadow="0">
      <root>
        <mxCell id="0" />
        <mxCell id="1" parent="0" />
        <mxCell id="CTOECkvEmNxIRN4jMa0X-1" value="Inputs" style="rounded=0;whiteSpace=wrap;html=1;" vertex="1" parent="1">
          <mxGeometry x="80" y="50" width="120" height="340" as="geometry" />
        </mxCell>
        <mxCell id="CTOECkvEmNxIRN4jMa0X-3" value="Processor" style="rounded=0;whiteSpace=wrap;html=1;" vertex="1" parent="1">
          <mxGeometry x="280" y="50" width="120" height="340" as="geometry" />
        </mxCell>
        <mxCell id="CTOECkvEmNxIRN4jMa0X-4" value="Output Effects" style="rounded=0;whiteSpace=wrap;html=1;" vertex="1" parent="1">
          <mxGeometry x="470" y="50" width="120" height="340" as="geometry" />
        </mxCell>
        <mxCell id="CTOECkvEmNxIRN4jMa0X-6" value="" style="pointerEvents=1;verticalLabelPosition=bottom;shadow=0;dashed=0;align=center;html=1;verticalAlign=top;shape=mxgraph.electrical.electro-mechanical.loudspeaker;" vertex="1" parent="1">
          <mxGeometry x="660" y="210" width="25" height="50" as="geometry" />
        </mxCell>
        <mxCell id="CTOECkvEmNxIRN4jMa0X-7" value="" style="shape=flexArrow;endArrow=classic;html=1;rounded=0;exitX=1.03;exitY=0.534;exitDx=0;exitDy=0;exitPerimeter=0;" edge="1" parent="1" source="CTOECkvEmNxIRN4jMa0X-3">
          <mxGeometry width="50" height="50" relative="1" as="geometry">
            <mxPoint x="410" y="230" as="sourcePoint" />
            <mxPoint x="470" y="230" as="targetPoint" />
          </mxGeometry>
        </mxCell>
        <mxCell id="CTOECkvEmNxIRN4jMa0X-8" value="" style="shape=flexArrow;endArrow=classic;html=1;rounded=0;exitX=1.03;exitY=0.534;exitDx=0;exitDy=0;exitPerimeter=0;entryX=0;entryY=0.5;entryDx=0;entryDy=0;" edge="1" parent="1" target="CTOECkvEmNxIRN4jMa0X-3">
          <mxGeometry width="50" height="50" relative="1" as="geometry">
            <mxPoint x="200" y="221" as="sourcePoint" />
            <mxPoint x="266" y="219" as="targetPoint" />
          </mxGeometry>
        </mxCell>
        <mxCell id="CTOECkvEmNxIRN4jMa0X-9" value="" style="shape=flexArrow;endArrow=classic;html=1;rounded=0;exitX=1.03;exitY=0.534;exitDx=0;exitDy=0;exitPerimeter=0;" edge="1" parent="1">
          <mxGeometry width="50" height="50" relative="1" as="geometry">
            <mxPoint x="594" y="236" as="sourcePoint" />
            <mxPoint x="660" y="234" as="targetPoint" />
          </mxGeometry>
        </mxCell>
        <mxCell id="CTOECkvEmNxIRN4jMa0X-10" value="Speaker" style="rounded=0;whiteSpace=wrap;html=1;" vertex="1" parent="1">
          <mxGeometry x="660" y="180" width="60" height="20" as="geometry" />
        </mxCell>
      </root>
    </mxGraphModel>
  </diagram>
</mxfile>
